<svg id="Capa_1" enable-background="new 0 0 512 512" height="512" viewBox="0 0 512 512" width="512" xmlns="http://www.w3.org/2000/svg"><g><g><path d="m256 302c-24.813 0-45-20.187-45-45s20.187-45 45-45 45 20.187 45 45-20.187 45-45 45zm0-60c-8.271 0-15 6.729-15 15s6.729 15 15 15 15-6.729 15-15-6.729-15-15-15z"/></g><g><path d="m376 302c-24.813 0-45-20.187-45-45s20.187-45 45-45 45 20.187 45 45-20.187 45-45 45zm0-60c-8.271 0-15 6.729-15 15s6.729 15 15 15 15-6.729 15-15-6.729-15-15-15z"/></g><g><path d="m136 302c-24.813 0-45-20.187-45-45s20.187-45 45-45 45 20.187 45 45-20.187 45-45 45zm0-60c-8.271 0-15 6.729-15 15s6.729 15 15 15 15-6.729 15-15-6.729-15-15-15z"/></g><g><path d="m256 512c-50.414 0-99.009-14.69-141.036-42.559l-111.191 37.679 41.159-106.682c-29.424-42.823-44.932-92.582-44.932-144.438 0-141.576 114.39-256 256-256 141.575 0 256 114.39 256 256 0 141.576-114.39 256-256 256zm-136.334-75.829c4.112 2.104 54.521 45.829 136.334 45.829 124.617 0 226-101.383 226-226s-101.383-226-226-226-226 101.383-226 226c0 84.475 46.48 135.733 48.777 140.061l-23.953 62.084z"/></g></g></svg>